<?xml version="1.0" encoding="UTF-8"?>
<svg version="1.1" xmlns="http://www.w3.org/2000/svg" width="500" height="500">
<path d="M0 0 C1.48306641 0.02126953 1.48306641 0.02126953 2.99609375 0.04296875 C3.98738281 0.04941406 4.97867188 0.05585938 6 0.0625 C8.43359375 0.23046875 8.43359375 0.23046875 9.43359375 1.23046875 C11.3328146 1.39226379 11.3328146 1.39226379 13.55859375 1.35546875 C14.30367187 1.35804688 15.04875 1.360625 15.81640625 1.36328125 C18.54432276 1.28243345 18.54432276 1.28243345 21.625 0.640625 C26.38463574 0.12804884 30.55044548 0.75453521 35.24609375 1.54296875 C36.57024292 1.75445557 36.57024292 1.75445557 37.92114258 1.97021484 C54.92615936 4.72303436 54.92615936 4.72303436 56.43359375 6.23046875 C57.82604373 6.38876833 59.22312983 6.50711953 60.62109375 6.60546875 C66.41297312 7.22045436 69.9668118 8.79702275 74.18359375 12.91796875 C80.91745022 21.86035693 78.92014511 35.7268607 77.93359375 46.29296875 C76.49104591 61.94885565 76.5150878 77.23121474 86.43359375 90.23046875 C91.00612227 94.58525782 94.90885879 96.4072734 101.18359375 96.85546875 C102.1684375 96.93023437 103.15328125 97.005 104.16796875 97.08203125 C104.915625 97.13101563 105.66328125 97.18 106.43359375 97.23046875 C107.27926306 99.59834281 107.50434985 100.94642628 106.890625 103.41015625 C105.43359375 105.23046875 105.43359375 105.23046875 102.5703125 105.98828125 C101.43207031 106.10945313 100.29382813 106.230625 99.12109375 106.35546875 C94.86846923 106.83067651 91.34167534 107.45606773 87.43359375 109.23046875 C87.43359375 109.89046875 87.43359375 110.55046875 87.43359375 111.23046875 C86.05859375 112.85546875 86.05859375 112.85546875 84.43359375 114.23046875 C83.77359375 114.23046875 83.11359375 114.23046875 82.43359375 114.23046875 C82.2325 115.08705078 82.2325 115.08705078 82.02734375 115.9609375 C81.24616908 118.94687487 80.19483814 121.81540314 79.15234375 124.71875 C77.19885222 131.54535354 77.46636928 137.98435006 77.87109375 144.98046875 C78.24056087 152.52073728 78.58674905 160.0561574 78.68359375 167.60546875 C78.70478271 168.34635742 78.72597168 169.08724609 78.74780273 169.85058594 C78.7984887 177.6935729 76.51135022 185.16537074 71.43359375 191.23046875 C64.98348782 196.18724472 58.89698668 195.70460756 50.99609375 195.48046875 C49.78759766 195.46242188 48.57910156 195.444375 47.33398438 195.42578125 C44.36636191 195.37886232 41.40039714 195.31322477 38.43359375 195.23046875 C38.10359375 194.24046875 37.77359375 193.25046875 37.43359375 192.23046875 C38.52197266 190.07226562 38.52197266 190.07226562 40.43359375 188.23046875 C42.98974609 187.74804688 42.98974609 187.74804688 46.01953125 187.76171875 C47.11523438 187.74753906 48.2109375 187.73335937 49.33984375 187.71875 C51.64453134 187.72653611 53.94921884 187.73434843 56.25390625 187.7421875 C62.71097487 187.72247446 62.71097487 187.72247446 68.66015625 185.51171875 C71.53694209 181.81118366 71.5631805 177.93758512 71.48364258 173.37109375 C71.47065628 172.43241455 71.45766998 171.49373535 71.44429016 170.52661133 C71.42658066 169.52138428 71.40887115 168.51615723 71.390625 167.48046875 C71.36821787 165.32292605 71.34676455 163.16537328 71.32617188 161.0078125 C71.28926802 157.62878784 71.24644377 154.25028582 71.18676758 150.87158203 C70.68962533 121.30790005 70.68962533 121.30790005 80.43359375 108.23046875 C81.09359375 108.23046875 81.75359375 108.23046875 82.43359375 108.23046875 C82.70171875 107.61171875 82.96984375 106.99296875 83.24609375 106.35546875 C84.43359375 104.23046875 84.43359375 104.23046875 87.43359375 102.23046875 C86.56734375 101.57046875 85.70109375 100.91046875 84.80859375 100.23046875 C77.60778289 94.20425824 72.96629152 86.50850348 71.43359375 77.23046875 C71.3603996 75.54971192 71.33558775 73.86635366 71.35180664 72.18408203 C71.35833755 71.20601593 71.36486847 70.22794983 71.37159729 69.22024536 C71.38303268 68.1743222 71.39446808 67.12839905 71.40625 66.05078125 C71.41889667 63.82031405 71.4312576 61.58984522 71.44335938 59.359375 C71.4681631 55.85492827 71.49614047 52.35056714 71.52954102 48.84619141 C71.55982292 45.45604926 71.57754237 42.06601585 71.59375 38.67578125 C71.60720963 37.63390656 71.62066925 36.59203186 71.63453674 35.51858521 C71.65333342 30.04233758 71.46415288 25.35289721 69.43359375 20.23046875 C67.04092569 18.57533231 67.04092569 18.57533231 64.12109375 17.85546875 C63.17621094 17.55898437 62.23132813 17.2625 61.2578125 16.95703125 C53.73709552 15.02224099 47.86485366 14.58615263 40.43359375 17.23046875 C37.86726759 28.82764579 38.16240531 40.48665598 38.2277832 52.29882812 C38.24619836 55.75007419 38.2482913 59.20105333 38.24804688 62.65234375 C38.2529576 64.85547107 38.25878397 67.05859658 38.265625 69.26171875 C38.26673782 70.28881958 38.26785065 71.31592041 38.26899719 72.37414551 C38.27537704 73.33284546 38.2817569 74.29154541 38.28833008 75.27929688 C38.29214188 76.11722778 38.29595367 76.95515869 38.29988098 77.81848145 C38.44140033 80.3712883 38.91027996 82.73066919 39.43359375 85.23046875 C39.65468322 88.15690283 39.82708799 91.0653214 39.953125 93.99609375 C39.99403763 94.92955627 40.03495026 95.8630188 40.07710266 96.82476807 C40.68377617 112.05232506 40.84429849 127.29554763 41.04614258 142.53271484 C41.10748916 147.12369071 41.18167129 151.71437199 41.25851727 156.30511093 C41.3158745 159.86165314 41.36426183 163.41827566 41.41010475 166.97498322 C41.43349112 168.67036107 41.46023921 170.36569604 41.4904232 172.06096649 C41.53134982 174.40749389 41.55965283 176.75384316 41.5847168 179.10058594 C41.59968704 179.79754074 41.61465729 180.49449554 41.63008118 181.21257019 C41.64119254 182.88644799 41.54664393 184.56037593 41.43359375 186.23046875 C39.43359375 188.23046875 39.43359375 188.23046875 37.55419922 188.45751953 C36.43875732 188.44180908 36.43875732 188.44180908 35.30078125 188.42578125 C34.09228516 188.41611328 34.09228516 188.41611328 32.859375 188.40625 C32.01761719 188.38949219 31.17585938 188.37273437 30.30859375 188.35546875 C29.45910156 188.34644531 28.60960937 188.33742188 27.734375 188.328125 C25.63399491 188.30452522 23.53375931 188.26865358 21.43359375 188.23046875 C19.06936294 184.60062739 19.47362017 182.21432606 20.24609375 178.04296875 C22.04762376 168.04387263 22.59410118 158.36118459 22.66338921 148.21987915 C22.68000825 145.87266755 22.70324866 143.52560289 22.72828674 141.1784668 C22.79850943 134.51130677 22.85912066 127.84409029 22.91040039 121.17675781 C22.94235936 117.08140454 22.98366352 112.98622944 23.03059578 108.89102173 C23.04649878 107.3410667 23.05887356 105.79107094 23.06750298 104.24105835 C23.10762554 97.14086705 23.16170095 90.39717813 24.98390198 83.48815918 C26.00541422 78.3596277 25.71669467 73.04810327 25.69921875 67.83984375 C25.7011322 66.57706604 25.70304565 65.31428833 25.70501709 64.01324463 C25.70637247 61.35732009 25.70374087 58.70176909 25.69433594 56.04589844 C25.68289575 52.65102327 25.68954357 49.25646284 25.70148087 45.86159897 C25.71045781 42.60433603 25.7041694 39.3471108 25.69921875 36.08984375 C25.70326721 34.87520447 25.70731567 33.66056519 25.71148682 32.40911865 C25.7051825 31.27734192 25.69887817 30.14556519 25.69238281 28.97949219 C25.69079163 27.98737732 25.68920044 26.99526245 25.68756104 25.9730835 C25.4139788 23.0186452 24.76691182 20.87524484 23.43359375 18.23046875 C19.54219578 15.89562997 15.88890417 15.91223229 11.43359375 16.23046875 C10.62921875 16.56046875 9.82484375 16.89046875 8.99609375 17.23046875 C5.1754489 18.72145211 2.5353409 18.69356924 -1.56640625 18.23046875 C-4.17987069 15.8620166 -4.50102841 13.97427568 -4.8046875 10.51953125 C-4.87486761 7.70493936 -4.91298535 5.02560666 -4.56640625 2.23046875 C-2.56640625 0.23046875 -2.56640625 0.23046875 0 0 Z M11.43359375 8.23046875 C11.76359375 8.89046875 12.09359375 9.55046875 12.43359375 10.23046875 C13.09359375 10.23046875 13.75359375 10.23046875 14.43359375 10.23046875 C14.43359375 9.57046875 14.43359375 8.91046875 14.43359375 8.23046875 C13.44359375 8.23046875 12.45359375 8.23046875 11.43359375 8.23046875 Z M26.37109375 8.23046875 C24.43556641 8.50890625 24.43556641 8.50890625 22.4609375 8.79296875 C21.46191406 8.93734375 20.46289062 9.08171875 19.43359375 9.23046875 C20.82417759 12.01163643 22.81261128 12.25527992 25.578125 13.3671875 C28.20589214 14.58979074 30.26772758 16.32713181 32.43359375 18.23046875 C35.59475151 16.86063372 36.42630295 16.24140495 38.43359375 13.23046875 C37.12952491 11.21126538 35.79535956 9.21121902 34.43359375 7.23046875 C31.76765489 7.23046875 28.99734773 7.85190962 26.37109375 8.23046875 Z M32.43359375 31.23046875 C33.43359375 35.23046875 33.43359375 35.23046875 33.43359375 35.23046875 Z M33.43359375 40.23046875 C33.43359375 42.54046875 33.43359375 44.85046875 33.43359375 47.23046875 C33.76359375 47.23046875 34.09359375 47.23046875 34.43359375 47.23046875 C34.43359375 44.92046875 34.43359375 42.61046875 34.43359375 40.23046875 C34.10359375 40.23046875 33.77359375 40.23046875 33.43359375 40.23046875 Z M33.43359375 49.23046875 C33.43359375 50.88046875 33.43359375 52.53046875 33.43359375 54.23046875 C33.76359375 54.23046875 34.09359375 54.23046875 34.43359375 54.23046875 C34.43359375 52.58046875 34.43359375 50.93046875 34.43359375 49.23046875 C34.10359375 49.23046875 33.77359375 49.23046875 33.43359375 49.23046875 Z M29.43359375 67.23046875 C30.09359375 73.17046875 30.75359375 79.11046875 31.43359375 85.23046875 C30.44359375 85.56046875 29.45359375 85.89046875 28.43359375 86.23046875 C30.08359375 86.23046875 31.73359375 86.23046875 33.43359375 86.23046875 C34.67198974 79.57409032 34.52498511 72.98327515 34.43359375 66.23046875 C32.73392058 66.23046875 31.08251893 66.81823746 29.43359375 67.23046875 Z M31.43359375 94.23046875 C30.77359375 97.20046875 30.11359375 100.17046875 29.43359375 103.23046875 C31.08359375 102.57046875 32.73359375 101.91046875 34.43359375 101.23046875 C33.77359375 98.92046875 33.11359375 96.61046875 32.43359375 94.23046875 C32.10359375 94.23046875 31.77359375 94.23046875 31.43359375 94.23046875 Z M30.43359375 107.23046875 C30.10359375 108.55046875 29.77359375 109.87046875 29.43359375 111.23046875 C30.42359375 111.72546875 30.42359375 111.72546875 31.43359375 112.23046875 C31.43359375 111.57046875 31.43359375 110.91046875 31.43359375 110.23046875 C32.09359375 109.90046875 32.75359375 109.57046875 33.43359375 109.23046875 C32.44359375 108.57046875 31.45359375 107.91046875 30.43359375 107.23046875 Z M31.43359375 112.23046875 C31.10359375 113.22046875 30.77359375 114.21046875 30.43359375 115.23046875 C31.75359375 114.57046875 33.07359375 113.91046875 34.43359375 113.23046875 C33.44359375 112.90046875 32.45359375 112.57046875 31.43359375 112.23046875 Z M29.43359375 118.23046875 C30.42359375 118.72546875 30.42359375 118.72546875 31.43359375 119.23046875 C31.43359375 120.22046875 31.43359375 121.21046875 31.43359375 122.23046875 C30.77359375 122.23046875 30.11359375 122.23046875 29.43359375 122.23046875 C29.57796875 122.80796875 29.72234375 123.38546875 29.87109375 123.98046875 C30.39192708 126.06380208 30.91276042 128.14713542 31.43359375 130.23046875 C32.42359375 129.90046875 33.41359375 129.57046875 34.43359375 129.23046875 C34.10359375 128.90046875 33.77359375 128.57046875 33.43359375 128.23046875 C33.60994827 125.53964003 34.05195296 122.90195429 34.43359375 120.23046875 C33.77359375 120.23046875 33.11359375 120.23046875 32.43359375 120.23046875 C32.43359375 119.57046875 32.43359375 118.91046875 32.43359375 118.23046875 C31.44359375 118.23046875 30.45359375 118.23046875 29.43359375 118.23046875 Z M31.43359375 133.23046875 C29.48836998 136.68864434 29.35105156 138.79924478 30.30859375 142.54296875 C30.67984375 143.75984375 31.05109375 144.97671875 31.43359375 146.23046875 C30.77359375 146.23046875 30.11359375 146.23046875 29.43359375 146.23046875 C29.76359375 147.55046875 30.09359375 148.87046875 30.43359375 150.23046875 C31.09359375 149.90046875 31.75359375 149.57046875 32.43359375 149.23046875 C33.16435023 146.91640655 33.83497633 144.58218006 34.43359375 142.23046875 C33.77359375 142.23046875 33.11359375 142.23046875 32.43359375 142.23046875 C32.43359375 140.91046875 32.43359375 139.59046875 32.43359375 138.23046875 C33.09359375 137.90046875 33.75359375 137.57046875 34.43359375 137.23046875 C33.77359375 135.91046875 33.11359375 134.59046875 32.43359375 133.23046875 C32.10359375 133.23046875 31.77359375 133.23046875 31.43359375 133.23046875 Z M32.43359375 149.23046875 C33.43359375 151.23046875 33.43359375 151.23046875 33.43359375 151.23046875 Z M32.43359375 160.23046875 C32.76359375 161.22046875 33.09359375 162.21046875 33.43359375 163.23046875 C33.43359375 162.24046875 33.43359375 161.25046875 33.43359375 160.23046875 C33.10359375 160.23046875 32.77359375 160.23046875 32.43359375 160.23046875 Z M32.43359375 165.23046875 C33.43359375 167.23046875 33.43359375 167.23046875 33.43359375 167.23046875 Z M32.43359375 168.23046875 C33.43359375 172.23046875 33.43359375 172.23046875 33.43359375 172.23046875 Z M33.43359375 176.23046875 C34.91859375 177.22046875 34.91859375 177.22046875 36.43359375 178.23046875 C36.43359375 177.57046875 36.43359375 176.91046875 36.43359375 176.23046875 C35.44359375 176.23046875 34.45359375 176.23046875 33.43359375 176.23046875 Z M29.43359375 178.23046875 C29.10359375 179.22046875 28.77359375 180.21046875 28.43359375 181.23046875 C29.09359375 181.23046875 29.75359375 181.23046875 30.43359375 181.23046875 C30.76359375 180.24046875 31.09359375 179.25046875 31.43359375 178.23046875 C30.77359375 178.23046875 30.11359375 178.23046875 29.43359375 178.23046875 Z " fill="#C3C3C3" transform="translate(220.56640625,178.76953125)"/>
<path d="M0 0 C1.48306641 0.02126953 1.48306641 0.02126953 2.99609375 0.04296875 C3.98738281 0.04941406 4.97867188 0.05585938 6 0.0625 C8.43359375 0.23046875 8.43359375 0.23046875 9.43359375 1.23046875 C11.3328146 1.39226379 11.3328146 1.39226379 13.55859375 1.35546875 C14.30367187 1.35804688 15.04875 1.360625 15.81640625 1.36328125 C18.54432276 1.28243345 18.54432276 1.28243345 21.625 0.640625 C26.38463574 0.12804884 30.55044548 0.75453521 35.24609375 1.54296875 C36.57024292 1.75445557 36.57024292 1.75445557 37.92114258 1.97021484 C54.92615936 4.72303436 54.92615936 4.72303436 56.43359375 6.23046875 C57.82604373 6.38876833 59.22312983 6.50711953 60.62109375 6.60546875 C66.41297312 7.22045436 69.9668118 8.79702275 74.18359375 12.91796875 C80.91745022 21.86035693 78.92014511 35.7268607 77.93359375 46.29296875 C76.49104591 61.94885565 76.5150878 77.23121474 86.43359375 90.23046875 C91.00612227 94.58525782 94.90885879 96.4072734 101.18359375 96.85546875 C102.1684375 96.93023437 103.15328125 97.005 104.16796875 97.08203125 C104.915625 97.13101563 105.66328125 97.18 106.43359375 97.23046875 C107.27926306 99.59834281 107.50434985 100.94642628 106.890625 103.41015625 C105.43359375 105.23046875 105.43359375 105.23046875 102.5703125 105.98828125 C101.43207031 106.10945313 100.29382813 106.230625 99.12109375 106.35546875 C94.86846923 106.83067651 91.34167534 107.45606773 87.43359375 109.23046875 C87.43359375 109.89046875 87.43359375 110.55046875 87.43359375 111.23046875 C86.05859375 112.85546875 86.05859375 112.85546875 84.43359375 114.23046875 C83.77359375 114.23046875 83.11359375 114.23046875 82.43359375 114.23046875 C82.2325 115.08705078 82.2325 115.08705078 82.02734375 115.9609375 C81.24616908 118.94687487 80.19483814 121.81540314 79.15234375 124.71875 C77.19885222 131.54535354 77.46636928 137.98435006 77.87109375 144.98046875 C78.24056087 152.52073728 78.58674905 160.0561574 78.68359375 167.60546875 C78.70478271 168.34635742 78.72597168 169.08724609 78.74780273 169.85058594 C78.7984887 177.6935729 76.51135022 185.16537074 71.43359375 191.23046875 C64.98348782 196.18724472 58.89698668 195.70460756 50.99609375 195.48046875 C49.78759766 195.46242188 48.57910156 195.444375 47.33398438 195.42578125 C44.36636191 195.37886232 41.40039714 195.31322477 38.43359375 195.23046875 C38.10359375 194.24046875 37.77359375 193.25046875 37.43359375 192.23046875 C38.52197266 190.07226562 38.52197266 190.07226562 40.43359375 188.23046875 C42.98974609 187.74804688 42.98974609 187.74804688 46.01953125 187.76171875 C47.11523438 187.74753906 48.2109375 187.73335937 49.33984375 187.71875 C51.64453134 187.72653611 53.94921884 187.73434843 56.25390625 187.7421875 C62.71097487 187.72247446 62.71097487 187.72247446 68.66015625 185.51171875 C71.53694209 181.81118366 71.5631805 177.93758512 71.48364258 173.37109375 C71.47065628 172.43241455 71.45766998 171.49373535 71.44429016 170.52661133 C71.42658066 169.52138428 71.40887115 168.51615723 71.390625 167.48046875 C71.36821787 165.32292605 71.34676455 163.16537328 71.32617188 161.0078125 C71.28926802 157.62878784 71.24644377 154.25028582 71.18676758 150.87158203 C70.68962533 121.30790005 70.68962533 121.30790005 80.43359375 108.23046875 C81.09359375 108.23046875 81.75359375 108.23046875 82.43359375 108.23046875 C82.70171875 107.61171875 82.96984375 106.99296875 83.24609375 106.35546875 C84.43359375 104.23046875 84.43359375 104.23046875 87.43359375 102.23046875 C86.56734375 101.57046875 85.70109375 100.91046875 84.80859375 100.23046875 C77.60778289 94.20425824 72.96629152 86.50850348 71.43359375 77.23046875 C71.3603996 75.54971192 71.33558775 73.86635366 71.35180664 72.18408203 C71.35833755 71.20601593 71.36486847 70.22794983 71.37159729 69.22024536 C71.38303268 68.1743222 71.39446808 67.12839905 71.40625 66.05078125 C71.41889667 63.82031405 71.4312576 61.58984522 71.44335938 59.359375 C71.4681631 55.85492827 71.49614047 52.35056714 71.52954102 48.84619141 C71.55982292 45.45604926 71.57754237 42.06601585 71.59375 38.67578125 C71.60720963 37.63390656 71.62066925 36.59203186 71.63453674 35.51858521 C71.65333342 30.04233758 71.46415288 25.35289721 69.43359375 20.23046875 C67.04092569 18.57533231 67.04092569 18.57533231 64.12109375 17.85546875 C63.17621094 17.55898437 62.23132813 17.2625 61.2578125 16.95703125 C53.85043965 15.05140006 47.73362229 14.38167712 40.43359375 17.23046875 C40.10359375 19.21046875 39.77359375 21.19046875 39.43359375 23.23046875 C39.10359375 23.23046875 38.77359375 23.23046875 38.43359375 23.23046875 C37.93859375 20.26046875 37.93859375 20.26046875 37.43359375 17.23046875 C36.44359375 17.23046875 35.45359375 17.23046875 34.43359375 17.23046875 C35.42359375 15.91046875 36.41359375 14.59046875 37.43359375 13.23046875 C36.11359375 11.58046875 34.79359375 9.93046875 33.43359375 8.23046875 C29.14359375 8.89046875 24.85359375 9.55046875 20.43359375 10.23046875 C20.43359375 10.56046875 20.43359375 10.89046875 20.43359375 11.23046875 C18.97536163 11.25747305 17.516987 11.27686662 16.05859375 11.29296875 C15.24648437 11.30457031 14.434375 11.31617188 13.59765625 11.328125 C11.43359375 11.23046875 11.43359375 11.23046875 9.43359375 10.23046875 C9.10359375 10.89046875 8.77359375 11.55046875 8.43359375 12.23046875 C5.79359375 12.23046875 3.15359375 12.23046875 0.43359375 12.23046875 C0.43359375 11.24046875 0.43359375 10.25046875 0.43359375 9.23046875 C3.40359375 9.72546875 3.40359375 9.72546875 6.43359375 10.23046875 C6.10359375 8.91046875 5.77359375 7.59046875 5.43359375 6.23046875 C4.44359375 6.89046875 3.45359375 7.55046875 2.43359375 8.23046875 C1.44359375 8.23046875 0.45359375 8.23046875 -0.56640625 8.23046875 C-1.22640625 6.58046875 -1.88640625 4.93046875 -2.56640625 3.23046875 C-2.56640625 7.52046875 -2.56640625 11.81046875 -2.56640625 16.23046875 C-4.80874634 12.86695862 -4.8373884 11.60736819 -4.81640625 7.66796875 C-4.8215625 6.69730469 -4.82671875 5.72664062 -4.83203125 4.7265625 C-4.45589219 1.19196164 -3.53369214 0.31733308 0 0 Z M11.43359375 8.23046875 C11.76359375 8.89046875 12.09359375 9.55046875 12.43359375 10.23046875 C13.09359375 10.23046875 13.75359375 10.23046875 14.43359375 10.23046875 C14.43359375 9.57046875 14.43359375 8.91046875 14.43359375 8.23046875 C13.44359375 8.23046875 12.45359375 8.23046875 11.43359375 8.23046875 Z " fill="#C1C1C1" transform="translate(220.56640625,178.76953125)"/>
<path d="M0 0 C0.33 0.99 0.66 1.98 1 3 C1.66 3.33 2.32 3.66 3 4 C2.67 4.66 2.34 5.32 2 6 C2.66 5.34 3.32 4.68 4 4 C5.32 4 6.64 4 8 4 C8.33 5.32 8.66 6.64 9 8 C6.03 7.505 6.03 7.505 3 7 C3 7.99 3 8.98 3 10 C5.64 10 8.28 10 11 10 C11.33 9.01 11.66 8.02 12 7 C12.66 7.33 13.32 7.66 14 8 C16.04113097 8.07806025 18.08298281 8.13775248 20.125 8.1875 C25.96924304 8.55477878 29.01067355 9.68128148 33.12109375 13.8203125 C35.08917903 15.32358065 35.08917903 15.32358065 38.22265625 14.6796875 C39.13917969 14.45539063 40.05570312 14.23109375 41 14 C41.02730494 16.18742879 41.04653255 18.37495907 41.0625 20.5625 C41.07410156 21.78066406 41.08570313 22.99882812 41.09765625 24.25390625 C41 28 41 28 40.51367188 31.18554688 C39.94555045 35.4043345 39.77546468 39.52694982 39.68359375 43.77734375 C39.66281265 44.58869278 39.64203156 45.40004181 39.62062073 46.23597717 C39.55574357 48.80307339 39.49653078 51.37026337 39.4375 53.9375 C39.39425582 55.68816036 39.35063974 57.43881158 39.30664062 59.18945312 C39.2001265 63.45954171 39.09868886 67.72972368 39 72 C38.67 72 38.34 72 38 72 C36.97715292 64.382509 37.0324396 57.0385566 37.4375 49.375 C37.48970703 48.27542969 37.54191406 47.17585938 37.59570312 46.04296875 C37.72394304 43.36158878 37.85882498 40.68072469 38 38 C37.01 38 36.02 38 35 38 C35 39.32 35 40.64 35 42 C34.34 42 33.68 42 33 42 C33.020625 42.9075 33.04125 43.815 33.0625 44.75 C33 48 33 48 32.5 49.9375 C31.85388653 52.22347241 31.85388653 52.22347241 32.0625 55.5625 C32 59 32 59 30 62 C29.97812622 60.22955322 29.97812622 60.22955322 29.95581055 58.42333984 C29.89767303 54.02850625 29.82044119 49.63417674 29.73754883 45.23974609 C29.70437207 43.34074101 29.67631769 41.44163904 29.65356445 39.54248047 C29.61988482 36.80654765 29.5675628 34.07149689 29.51171875 31.3359375 C29.50532883 30.49195404 29.4989389 29.64797058 29.49235535 28.77841187 C29.36949706 23.81063648 28.76258248 20.29753686 26 16 C22.12610442 13.63261937 18.45875066 13.68151781 14 14 C13.195625 14.33 12.39125 14.66 11.5625 15 C7.93981287 16.41373156 4.87476832 16.13134808 1 16 C-1.06149392 10.97510856 -1.4857159 6.3654663 -1 1 C-0.67 0.67 -0.34 0.34 0 0 Z M35 29 C36 33 36 33 36 33 Z " fill="#E1E1E1" transform="translate(218,181)"/>
<path d="M0 0 C0.33 0 0.66 0 1 0 C1.33 8.91 1.66 17.82 2 27 C2.99 23.535 2.99 23.535 4 20 C4.66 20 5.32 20 6 20 C6.33 18.68 6.66 17.36 7 16 C7.66 16 8.32 16 9 16 C9 26.56 9 37.12 9 48 C8.67 48 8.34 48 8 48 C7.67 46.35 7.34 44.7 7 43 C5.68 43 4.36 43 3 43 C3.309375 43.804375 3.61875 44.60875 3.9375 45.4375 C5.48004029 50.60954687 6.73551485 55.79345544 5 61 C5.66 61.33 6.32 61.66 7 62 C7 59.69 7 57.38 7 55 C7.33 55 7.66 55 8 55 C8 57.64 8 60.28 8 63 C5.66705225 63.04241723 3.33297433 63.04092937 1 63 C0.67 62.67 0.34 62.34 0 62 C-0.66 63.32 -1.32 64.64 -2 66 C-2.125 59.25 -2.125 59.25 -1 57 C-0.88042526 55.18281916 -0.8227532 53.36142165 -0.79467773 51.54052734 C-0.7647599 49.82897964 -0.7647599 49.82897964 -0.73423767 48.08285522 C-0.71752518 46.84637238 -0.70081268 45.60988953 -0.68359375 44.3359375 C-0.66281265 43.07359283 -0.64203156 41.81124817 -0.62062073 40.51065063 C-0.56622074 37.15367955 -0.51599764 33.79669811 -0.46777344 30.43963623 C-0.41754958 27.01438935 -0.36186814 23.58923171 -0.30664062 20.1640625 C-0.19938141 13.44277939 -0.0976256 6.72142956 0 0 Z M7 25 C7 26.65 7 28.3 7 30 C7.33 30 7.66 30 8 30 C8 28.35 8 26.7 8 25 C7.67 25 7.34 25 7 25 Z " fill="#ABABAB" transform="translate(247,203)"/>
<path d="M0 0 C1.48306641 0.02126953 1.48306641 0.02126953 2.99609375 0.04296875 C3.98738281 0.04941406 4.97867188 0.05585938 6 0.0625 C8.43359375 0.23046875 8.43359375 0.23046875 9.43359375 1.23046875 C14.5081389 1.59369935 19.45016832 1.25270986 24.43359375 0.23046875 C24.76359375 1.22046875 25.09359375 2.21046875 25.43359375 3.23046875 C24.11359375 4.55046875 22.79359375 5.87046875 21.43359375 7.23046875 C22.09359375 7.89046875 22.75359375 8.55046875 23.43359375 9.23046875 C20.27581775 11.33565275 19.47962241 11.48336219 15.87109375 11.41796875 C15.08605469 11.41152344 14.30101562 11.40507812 13.4921875 11.3984375 C11.43359375 11.23046875 11.43359375 11.23046875 9.43359375 10.23046875 C9.10359375 10.89046875 8.77359375 11.55046875 8.43359375 12.23046875 C5.79359375 12.23046875 3.15359375 12.23046875 0.43359375 12.23046875 C0.43359375 11.24046875 0.43359375 10.25046875 0.43359375 9.23046875 C3.40359375 9.72546875 3.40359375 9.72546875 6.43359375 10.23046875 C6.10359375 8.91046875 5.77359375 7.59046875 5.43359375 6.23046875 C4.44359375 6.89046875 3.45359375 7.55046875 2.43359375 8.23046875 C1.44359375 8.23046875 0.45359375 8.23046875 -0.56640625 8.23046875 C-1.22640625 6.58046875 -1.88640625 4.93046875 -2.56640625 3.23046875 C-2.56640625 7.52046875 -2.56640625 11.81046875 -2.56640625 16.23046875 C-4.80874634 12.86695862 -4.8373884 11.60736819 -4.81640625 7.66796875 C-4.8215625 6.69730469 -4.82671875 5.72664062 -4.83203125 4.7265625 C-4.45589219 1.19196164 -3.53369214 0.31733308 0 0 Z M11.43359375 8.23046875 C11.76359375 8.89046875 12.09359375 9.55046875 12.43359375 10.23046875 C13.09359375 10.23046875 13.75359375 10.23046875 14.43359375 10.23046875 C14.43359375 9.57046875 14.43359375 8.91046875 14.43359375 8.23046875 C13.44359375 8.23046875 12.45359375 8.23046875 11.43359375 8.23046875 Z " fill="#9E9E9E" transform="translate(220.56640625,178.76953125)"/>
<path d="M0 0 C0.33 0 0.66 0 1 0 C1.90816798 3.86207074 2.11643845 7.43148656 2.09765625 11.39453125 C2.09443359 12.59658203 2.09121094 13.79863281 2.08789062 15.03710938 C2.07951172 16.28298828 2.07113281 17.52886719 2.0625 18.8125 C2.05798828 20.07771484 2.05347656 21.34292969 2.04882812 22.64648438 C2.03706251 25.7643711 2.02062272 28.88216133 2 32 C-2 32 -2 32 -5 31 C-4.34 30.67 -3.68 30.34 -3 30 C-3.33 25.38 -3.66 20.76 -4 16 C-3.34 16 -2.68 16 -2 16 C-2.95865509 13.66924071 -2.95865509 13.66924071 -6 12 C-5.01 11.67 -4.02 11.34 -3 11 C-3.33 10.01 -3.66 9.02 -4 8 C-3.34 7.01 -2.68 6.02 -2 5 C-2.66 5 -3.32 5 -4 5 C-4 4.34 -4 3.68 -4 3 C-3.01 2.67 -2.02 2.34 -1 2 C-0.67 1.34 -0.34 0.68 0 0 Z " fill="#F9F9F9" transform="translate(258,322)"/>
<path d="M0 0 C3.42757443 2.63659572 3.6693053 5.3414767 4.25 9.5 C4.42015625 10.6446875 4.5903125 11.789375 4.765625 12.96875 C5 16 5 16 4 19 C4.66 19.33 5.32 19.66 6 20 C6 17.69 6 15.38 6 13 C6.33 13 6.66 13 7 13 C7 15.64 7 18.28 7 21 C4.66705225 21.04241723 2.33297433 21.04092937 0 21 C-0.33 20.67 -0.66 20.34 -1 20 C-1.66 21.32 -2.32 22.64 -3 24 C-3.125 17.25 -3.125 17.25 -2 15 C-1.6087065 12.45802036 -1.25520881 9.92608411 -0.9375 7.375 C-0.84662109 6.66859375 -0.75574219 5.9621875 -0.66210938 5.234375 C-0.43816881 3.4899959 -0.21866182 1.74504866 0 0 Z " fill="#CDCDCD" transform="translate(248,245)"/>
<path d="M0 0 C0.99 0 1.98 0 3 0 C3 7.59 3 15.18 3 23 C2.34 23 1.68 23 1 23 C0.67 20.69 0.34 18.38 0 16 C-0.66 16 -1.32 16 -2 16 C-2 16.99 -2 17.98 -2 19 C-1.34 19.33 -0.68 19.66 0 20 C-0.33 20.99 -0.66 21.98 -1 23 C-1.66 22.67 -2.32 22.34 -3 22 C-4.71438725 15.80608478 -3.73240997 10.05627617 -2 4 C-1.34 4 -0.68 4 0 4 C0 2.68 0 1.36 0 0 Z M1 9 C1 10.65 1 12.3 1 14 C1.33 14 1.66 14 2 14 C2 12.35 2 10.7 2 9 C1.67 9 1.34 9 1 9 Z " fill="#767676" transform="translate(253,219)"/>
<path d="M0 0 C3 2 3 2 4 5 C4 3.35 4 1.7 4 0 C4.66 0 5.32 0 6 0 C5.67 1.98 5.34 3.96 5 6 C4.34 6 3.68 6 3 6 C3.020625 6.9075 3.04125 7.815 3.0625 8.75 C3 12 3 12 2.5 13.9375 C1.85388653 16.22347241 1.85388653 16.22347241 2.0625 19.5625 C2 23 2 23 0 26 C0 17.42 0 8.84 0 0 Z " fill="#F4F4F4" transform="translate(248,217)"/>
<path d="M0 0 C0.99 1.485 0.99 1.485 2 3 C-1.20380017 5.13586678 -2.01939967 5.23132175 -5.6875 5.125 C-6.49574219 5.10695312 -7.30398437 5.08890625 -8.13671875 5.0703125 C-9.05904297 5.03550781 -9.05904297 5.03550781 -10 5 C-10 3 -10 1 -10 -1 C-5.96901069 -2.15171123 -3.70658609 -2.00356005 0 0 Z M-10 2 C-9.67 2.66 -9.34 3.32 -9 4 C-8.34 4 -7.68 4 -7 4 C-7 3.34 -7 2.68 -7 2 C-7.99 2 -8.98 2 -10 2 Z " fill="#191919" transform="translate(242,185)"/>
<path d="M0 0 C0.79341797 0.00193359 1.58683594 0.00386719 2.40429688 0.00585938 C3.22865234 0.01810547 4.05300781 0.03035156 4.90234375 0.04296875 C5.73056641 0.04361328 6.55878906 0.04425781 7.41210938 0.04492188 C13.55877439 0.08993407 13.55877439 0.08993407 15.83984375 1.23046875 C15.83984375 2.22046875 15.83984375 3.21046875 15.83984375 4.23046875 C17.15984375 4.56046875 18.47984375 4.89046875 19.83984375 5.23046875 C16.73433283 6.78322421 14.63820643 5.34559878 11.40234375 4.29296875 C5.01870704 2.37590138 -0.53426963 1.74366892 -7.16015625 2.23046875 C-4.08871492 0.1828412 -3.46164666 -0.01960075 0 0 Z " fill="#727272" transform="translate(270.16015625,191.76953125)"/>
<path d="M0 0 C0.33 2.97 0.66 5.94 1 9 C-1.64 9 -4.28 9 -7 9 C-7 8.01 -7 7.02 -7 6 C-4.03 6.495 -4.03 6.495 -1 7 C-1.33 5.68 -1.66 4.36 -2 3 C-2.99 3.66 -3.98 4.32 -5 5 C-5.99 5 -6.98 5 -8 5 C-6.44843568 0.34530705 -4.78780941 0 0 0 Z " fill="#464646" transform="translate(228,182)"/>
<path d="M0 0 C0.33 0 0.66 0 1 0 C1.125 6.625 1.125 6.625 0 10 C0.99 9.67 1.98 9.34 3 9 C3.33 10.65 3.66 12.3 4 14 C2.68 13.34 1.36 12.68 0 12 C0 12.99 0 13.98 0 15 C0.66 15.33 1.32 15.66 2 16 C1.67 16.99 1.34 17.98 1 19 C0.34 18.67 -0.32 18.34 -1 18 C-2.71438725 11.80608478 -1.73240997 6.05627617 0 0 Z " fill="#3B3B3B" transform="translate(251,223)"/>
<path d="M0 0 C0.33 0 0.66 0 1 0 C1.02687279 1.81242052 1.04633715 3.62495233 1.0625 5.4375 C1.07410156 6.44683594 1.08570313 7.45617187 1.09765625 8.49609375 C1 11 1 11 0 12 C0.66 12.33 1.32 12.66 2 13 C2 11.35 2 9.7 2 8 C2.33 8 2.66 8 3 8 C3 9.98 3 11.96 3 14 C1.35 13.67 -0.3 13.34 -2 13 C-2.33 11.35 -2.66 9.7 -3 8 C-2.34 8 -1.68 8 -1 8 C-1.020625 6.865625 -1.04125 5.73125 -1.0625 4.5625 C-1 1 -1 1 0 0 Z " fill="#3D3D3D" transform="translate(254,341)"/>
<path d="M0 0 C0.33 0 0.66 0 1 0 C1 2.64 1 5.28 1 8 C-1.33294775 8.04241723 -3.66702567 8.04092937 -6 8 C-6.33 7.67 -6.66 7.34 -7 7 C-7.66 8.32 -8.32 9.64 -9 11 C-9.125 7.625 -9.125 7.625 -9 4 C-8.34 3.34 -7.68 2.68 -7 2 C-6.5875 2.639375 -6.175 3.27875 -5.75 3.9375 C-3.82189513 6.20990931 -2.88575819 6.60196439 0 7 C0 4.69 0 2.38 0 0 Z " fill="#414141" transform="translate(254,258)"/>
<path d="M0 0 C0.99 0 1.98 0 3 0 C3 2.97 3 5.94 3 9 C2.67 8.34 2.34 7.68 2 7 C1.34 7 0.68 7 0 7 C0 8.65 0 10.3 0 12 C-0.66 11.67 -1.32 11.34 -2 11 C-2.24042276 6.91281305 -1.42258812 3.82320557 0 0 Z " fill="#5B5B5B" transform="translate(252,210)"/>
<path d="M0 0 C2 1 2 1 3 3 C3.33 3 3.66 3 4 3 C4 4.65 4 6.3 4 8 C4.66 8.33 5.32 8.66 6 9 C5.01 9 4.02 9 3 9 C3 8.34 3 7.68 3 7 C1.35 6.67 -0.3 6.34 -2 6 C-1.34 4.02 -0.68 2.04 0 0 Z " fill="#444444" transform="translate(250,290)"/>
<path d="M0 0 C0.66 0.33 1.32 0.66 2 1 C2 2.32 2 3.64 2 5 C3.32 4.67 4.64 4.34 6 4 C6.33 4.66 6.66 5.32 7 6 C5.68 6 4.36 6 3 6 C2.34 7.32 1.68 8.64 1 10 C1 9.01 1 8.02 1 7 C0.34 7 -0.32 7 -1 7 C-1 6.01 -1 5.02 -1 4 C-0.34 4 0.32 4 1 4 C0.67 2.68 0.34 1.36 0 0 Z " fill="#454545" transform="translate(250,304)"/>
<path d="M0 0 C0.99 1.485 0.99 1.485 2 3 C-0.64 3 -3.28 3 -6 3 C-5.34 2.67 -4.68 2.34 -4 2 C-4 1.34 -4 0.68 -4 0 C-5.98 0 -7.96 0 -10 0 C-10 -0.33 -10 -0.66 -10 -1 C-5.96901069 -2.15171123 -3.70658609 -2.00356005 0 0 Z " fill="#4B4B4B" transform="translate(242,185)"/>
<path d="M0 0 C1.32 0 2.64 0 4 0 C4.66 1.65 5.32 3.3 6 5 C4.35 5.33 2.7 5.66 1 6 C0.67 4.02 0.34 2.04 0 0 Z " fill="#5C5C5C" transform="translate(249,328)"/>
<path d="M0 0 C0.99 0.33 1.98 0.66 3 1 C2.67 1.33 2.34 1.66 2 2 C2.99 2.33 3.98 2.66 5 3 C5 3.66 5 4.32 5 5 C3.02 5.66 1.04 6.32 -1 7 C-2 4 -2 4 -1.0625 1.8125 C-0.5365625 0.9153125 -0.5365625 0.9153125 0 0 Z " fill="#232323" transform="translate(251,281)"/>
<path d="M0 0 C1.32 0.66 2.64 1.32 4 2 C3.34 2.66 2.68 3.32 2 4 C1.60235737 5.98821313 1.26224651 7.98944339 1 10 C0.67 10 0.34 10 0 10 C-0.33 8.02 -0.66 6.04 -1 4 C-1.99 4 -2.98 4 -4 4 C-2.68 2.68 -1.36 1.36 0 0 Z " fill="#4C4C4C" transform="translate(259,192)"/>
<path d="M0 0 C0.33 0.99 0.66 1.98 1 3 C-2 5 -2 5 -5 5 C-5.33 3.68 -5.66 2.36 -6 1 C-4 0 -4 0 0 0 Z " fill="#404040" transform="translate(245,179)"/>
<path d="M0 0 C2.1519437 3.22791555 2.20086443 4.28400809 2 8 C1.34 8 0.68 8 0 8 C-0.33 8.66 -0.66 9.32 -1 10 C-1.33 8.68 -1.66 7.36 -2 6 C-1.34 6 -0.68 6 0 6 C0 4.02 0 2.04 0 0 Z " fill="#6A6A6A" transform="translate(250,317)"/>
<path d="M0 0 C1.98 0.66 3.96 1.32 6 2 C5.67 3.65 5.34 5.3 5 7 C1.125 2.25 1.125 2.25 0 0 Z " fill="#6C6C6C" transform="translate(254,185)"/>
<path d="M0 0 C2.1519437 3.22791555 2.20086443 4.28400809 2 8 C1.01 8.33 0.02 8.66 -1 9 C-0.67 6.03 -0.34 3.06 0 0 Z " fill="#DBDBDB" transform="translate(252,224)"/>
</svg>
